<?xml version="1.0" encoding="UTF-8" standalone="no"?><svg xmlns="http://www.w3.org/2000/svg" xmlns:xlink="http://www.w3.org/1999/xlink" clip-rule="evenodd" stroke-miterlimit="10" viewBox="0 0 1024 768"><desc>SVG generated by Keynote</desc><defs></defs><g transform="matrix(1.00, 0.00, -0.00, -1.00, 0.0, 768.0)"><path d="M 0.0 768.0 L 1024.0 768.0 L 1024.0 0.0 L 0.0 0.0 Z M 0.0 768.0 " fill="#FEFFFF"></path><text xml:space="preserve" font-family="Helvetica-Light,Helvetica" font-size="67.2" fill="#000000" transform="matrix(1.00, 0.00, -0.00, -1.00, 9.2, 705.5)">D</text><text xml:space="preserve" font-family="Helvetica-Light,Helvetica" font-size="67.2" fill="#000000" transform="matrix(1.00, 0.00, -0.00, -1.00, 57.7, 705.5)">o</text><text xml:space="preserve" font-family="Helvetica-Light,Helvetica" font-size="67.2" fill="#000000" transform="matrix(1.00, 0.00, -0.00, -1.00, 95.0, 705.5)">c</text><text xml:space="preserve" font-family="Helvetica-Light,Helvetica" font-size="67.2" fill="#000000" transform="matrix(1.00, 0.00, -0.00, -1.00, 132.4, 705.5)">u</text><text xml:space="preserve" font-family="Helvetica-Light,Helvetica" font-size="67.2" fill="#000000" transform="matrix(1.00, 0.00, -0.00, -1.00, 169.8, 705.5)">m</text><text xml:space="preserve" font-family="Helvetica-Light,Helvetica" font-size="67.2" fill="#000000" transform="matrix(1.00, 0.00, -0.00, -1.00, 225.7, 705.5)">e</text><text xml:space="preserve" font-family="Helvetica-Light,Helvetica" font-size="67.2" fill="#000000" transform="matrix(1.00, 0.00, -0.00, -1.00, 263.1, 705.5)">n</text><text xml:space="preserve" font-family="Helvetica-Light,Helvetica" font-size="67.2" fill="#000000" transform="matrix(1.00, 0.00, -0.00, -1.00, 300.5, 705.5)">t</text><text xml:space="preserve" font-family="Helvetica-Light,Helvetica" font-size="67.2" fill="#000000" transform="matrix(1.00, 0.00, -0.00, -1.00, 319.2, 705.5)">a</text><text xml:space="preserve" font-family="Helvetica-Light,Helvetica" font-size="67.2" fill="#000000" transform="matrix(1.00, 0.00, -0.00, -1.00, 356.5, 705.5)">t</text><text xml:space="preserve" font-family="Helvetica-Light,Helvetica" font-size="67.2" fill="#000000" transform="matrix(1.00, 0.00, -0.00, -1.00, 375.2, 705.5)">i</text><text xml:space="preserve" font-family="Helvetica-Light,Helvetica" font-size="67.2" fill="#000000" transform="matrix(1.00, 0.00, -0.00, -1.00, 390.1, 705.5)">o</text><text xml:space="preserve" font-family="Helvetica-Light,Helvetica" font-size="67.2" fill="#000000" transform="matrix(1.00, 0.00, -0.00, -1.00, 427.5, 705.5)">n</text><image xlink:href="13850DAB4BF59C133ED017D7D3E58E92.png" width="1582.00" height="1304.00" transform="matrix(0.43, 0.00, -0.00, -0.43, 175.8, 661.1)"></image></g></svg>