<?xml version="1.0" encoding="UTF-8" standalone="no"?><svg xmlns="http://www.w3.org/2000/svg" xmlns:xlink="http://www.w3.org/1999/xlink" clip-rule="evenodd" stroke-miterlimit="10" viewBox="0 0 1024 768"><desc>SVG generated by Keynote</desc><defs></defs><g transform="matrix(1.00, 0.00, -0.00, -1.00, 0.0, 768.0)"><path d="M 0.0 768.0 L 1024.0 768.0 L 1024.0 0.0 L 0.0 0.0 Z M 0.0 768.0 " fill="#FEFFFF"></path><text xml:space="preserve" font-family="Helvetica-Light,Helvetica" font-size="67.2" fill="#000000" transform="matrix(1.00, 0.00, -0.00, -1.00, 19.2, 702.5)">D</text><text xml:space="preserve" font-family="Helvetica-Light,Helvetica" font-size="67.2" fill="#000000" transform="matrix(1.00, 0.00, -0.00, -1.00, 67.7, 702.5)">o</text><text xml:space="preserve" font-family="Helvetica-Light,Helvetica" font-size="67.2" fill="#000000" transform="matrix(1.00, 0.00, -0.00, -1.00, 105.0, 702.5)">c</text><text xml:space="preserve" font-family="Helvetica-Light,Helvetica" font-size="67.2" fill="#000000" transform="matrix(1.00, 0.00, -0.00, -1.00, 142.4, 702.5)">u</text><text xml:space="preserve" font-family="Helvetica-Light,Helvetica" font-size="67.2" fill="#000000" transform="matrix(1.00, 0.00, -0.00, -1.00, 179.8, 702.5)">m</text><text xml:space="preserve" font-family="Helvetica-Light,Helvetica" font-size="67.2" fill="#000000" transform="matrix(1.00, 0.00, -0.00, -1.00, 235.7, 702.5)">e</text><text xml:space="preserve" font-family="Helvetica-Light,Helvetica" font-size="67.2" fill="#000000" transform="matrix(1.00, 0.00, -0.00, -1.00, 273.1, 702.5)">n</text><text xml:space="preserve" font-family="Helvetica-Light,Helvetica" font-size="67.2" fill="#000000" transform="matrix(1.00, 0.00, -0.00, -1.00, 310.5, 702.5)">t</text><text xml:space="preserve" font-family="Helvetica-Light,Helvetica" font-size="67.2" fill="#000000" transform="matrix(1.00, 0.00, -0.00, -1.00, 329.2, 702.5)">a</text><text xml:space="preserve" font-family="Helvetica-Light,Helvetica" font-size="67.2" fill="#000000" transform="matrix(1.00, 0.00, -0.00, -1.00, 366.5, 702.5)">t</text><text xml:space="preserve" font-family="Helvetica-Light,Helvetica" font-size="67.2" fill="#000000" transform="matrix(1.00, 0.00, -0.00, -1.00, 385.2, 702.5)">i</text><text xml:space="preserve" font-family="Helvetica-Light,Helvetica" font-size="67.2" fill="#000000" transform="matrix(1.00, 0.00, -0.00, -1.00, 400.1, 702.5)">o</text><text xml:space="preserve" font-family="Helvetica-Light,Helvetica" font-size="67.2" fill="#000000" transform="matrix(1.00, 0.00, -0.00, -1.00, 437.5, 702.5)">n</text><g><clipPath id="clip0x6000004bde20"><path d="M 115.0 635.0 L 909.0 635.0 L 909.0 133.0 L 115.0 133.0 Z M 115.1 635.1 "></path></clipPath><g clip-path="url(#clip0x6000004bde20)"><image xlink:href="B86080DFE28E9B170F7EC18E44F472B3.png" width="1754.00" height="1110.00" transform="matrix(0.45, 0.00, -0.00, -0.45, 115.1, 635.1)"></image></g></g><text xml:space="preserve" font-family="Helvetica-Light,Helvetica" font-size="18.0" fill="#000000" transform="matrix(1.00, 0.00, -0.00, -1.00, 277.7, 82.6)">h</text><text xml:space="preserve" font-family="Helvetica-Light,Helvetica" font-size="18.0" fill="#000000" transform="matrix(1.00, 0.00, -0.00, -1.00, 287.7, 82.6)">t</text><text xml:space="preserve" font-family="Helvetica-Light,Helvetica" font-size="18.0" fill="#000000" transform="matrix(1.00, 0.00, -0.00, -1.00, 292.7, 82.6)">t</text><text xml:space="preserve" font-family="Helvetica-Light,Helvetica" font-size="18.0" fill="#000000" transform="matrix(1.00, 0.00, -0.00, -1.00, 297.7, 82.6)">p</text><text xml:space="preserve" font-family="Helvetica-Light,Helvetica" font-size="18.0" fill="#000000" transform="matrix(1.00, 0.00, -0.00, -1.00, 308.7, 82.6)">s</text><text xml:space="preserve" font-family="Helvetica-Light,Helvetica" font-size="18.0" fill="#000000" transform="matrix(1.00, 0.00, -0.00, -1.00, 317.7, 82.6)">:</text><text xml:space="preserve" font-family="Helvetica-Light,Helvetica" font-size="18.0" fill="#000000" transform="matrix(1.00, 0.00, -0.00, -1.00, 322.7, 82.6)">/</text><text xml:space="preserve" font-family="Helvetica-Light,Helvetica" font-size="18.0" fill="#000000" transform="matrix(1.00, 0.00, -0.00, -1.00, 327.7, 82.6)">/</text><text xml:space="preserve" font-family="Helvetica-Light,Helvetica" font-size="18.0" fill="#000000" transform="matrix(1.00, 0.00, -0.00, -1.00, 332.7, 82.6)">w</text><text xml:space="preserve" font-family="Helvetica-Light,Helvetica" font-size="18.0" fill="#000000" transform="matrix(1.00, 0.00, -0.00, -1.00, 345.7, 82.6)">w</text><text xml:space="preserve" font-family="Helvetica-Light,Helvetica" font-size="18.0" fill="#000000" transform="matrix(1.00, 0.00, -0.00, -1.00, 358.7, 82.6)">w</text><text xml:space="preserve" font-family="Helvetica-Light,Helvetica" font-size="18.0" fill="#000000" transform="matrix(1.00, 0.00, -0.00, -1.00, 370.7, 82.6)">.</text><text xml:space="preserve" font-family="Helvetica-Light,Helvetica" font-size="18.0" fill="#000000" transform="matrix(1.00, 0.00, -0.00, -1.00, 375.7, 82.6)">n</text><text xml:space="preserve" font-family="Helvetica-Light,Helvetica" font-size="18.0" fill="#000000" transform="matrix(1.00, 0.00, -0.00, -1.00, 385.7, 82.6)">p</text><text xml:space="preserve" font-family="Helvetica-Light,Helvetica" font-size="18.0" fill="#000000" transform="matrix(1.00, 0.00, -0.00, -1.00, 396.7, 82.6)">m</text><text xml:space="preserve" font-family="Helvetica-Light,Helvetica" font-size="18.0" fill="#000000" transform="matrix(1.00, 0.00, -0.00, -1.00, 411.7, 82.6)">j</text><text xml:space="preserve" font-family="Helvetica-Light,Helvetica" font-size="18.0" fill="#000000" transform="matrix(1.00, 0.00, -0.00, -1.00, 415.7, 82.6)">s</text><text xml:space="preserve" font-family="Helvetica-Light,Helvetica" font-size="18.0" fill="#000000" transform="matrix(1.00, 0.00, -0.00, -1.00, 424.7, 82.6)">.</text><text xml:space="preserve" font-family="Helvetica-Light,Helvetica" font-size="18.0" fill="#000000" transform="matrix(1.00, 0.00, -0.00, -1.00, 429.7, 82.6)">o</text><text xml:space="preserve" font-family="Helvetica-Light,Helvetica" font-size="18.0" fill="#000000" transform="matrix(1.00, 0.00, -0.00, -1.00, 439.7, 82.6)">r</text><text xml:space="preserve" font-family="Helvetica-Light,Helvetica" font-size="18.0" fill="#000000" transform="matrix(1.00, 0.00, -0.00, -1.00, 445.7, 82.6)">g</text><text xml:space="preserve" font-family="Helvetica-Light,Helvetica" font-size="18.0" fill="#000000" transform="matrix(1.00, 0.00, -0.00, -1.00, 456.7, 82.6)">/</text><text xml:space="preserve" font-family="Helvetica-Light,Helvetica" font-size="18.0" fill="#000000" transform="matrix(1.00, 0.00, -0.00, -1.00, 461.7, 82.6)">p</text><text xml:space="preserve" font-family="Helvetica-Light,Helvetica" font-size="18.0" fill="#000000" transform="matrix(1.00, 0.00, -0.00, -1.00, 472.7, 82.6)">a</text><text xml:space="preserve" font-family="Helvetica-Light,Helvetica" font-size="18.0" fill="#000000" transform="matrix(1.00, 0.00, -0.00, -1.00, 482.7, 82.6)">c</text><text xml:space="preserve" font-family="Helvetica-Light,Helvetica" font-size="18.0" fill="#000000" transform="matrix(1.00, 0.00, -0.00, -1.00, 492.7, 82.6)">k</text><text xml:space="preserve" font-family="Helvetica-Light,Helvetica" font-size="18.0" fill="#000000" transform="matrix(1.00, 0.00, -0.00, -1.00, 501.7, 82.6)">a</text><text xml:space="preserve" font-family="Helvetica-Light,Helvetica" font-size="18.0" fill="#000000" transform="matrix(1.00, 0.00, -0.00, -1.00, 511.7, 82.6)">g</text><text xml:space="preserve" font-family="Helvetica-Light,Helvetica" font-size="18.0" fill="#000000" transform="matrix(1.00, 0.00, -0.00, -1.00, 522.7, 82.6)">e</text><text xml:space="preserve" font-family="Helvetica-Light,Helvetica" font-size="18.0" fill="#000000" transform="matrix(1.00, 0.00, -0.00, -1.00, 532.7, 82.6)">/</text><text xml:space="preserve" font-family="Helvetica-Light,Helvetica" font-size="18.0" fill="#000000" transform="matrix(1.00, 0.00, -0.00, -1.00, 537.7, 82.6)">g</text><text xml:space="preserve" font-family="Helvetica-Light,Helvetica" font-size="18.0" fill="#000000" transform="matrix(1.00, 0.00, -0.00, -1.00, 548.7, 82.6)">r</text><text xml:space="preserve" font-family="Helvetica-Light,Helvetica" font-size="18.0" fill="#000000" transform="matrix(1.00, 0.00, -0.00, -1.00, 554.7, 82.6)">u</text><text xml:space="preserve" font-family="Helvetica-Light,Helvetica" font-size="18.0" fill="#000000" transform="matrix(1.00, 0.00, -0.00, -1.00, 564.7, 82.6)">n</text><text xml:space="preserve" font-family="Helvetica-Light,Helvetica" font-size="18.0" fill="#000000" transform="matrix(1.00, 0.00, -0.00, -1.00, 574.7, 82.6)">t</text><text xml:space="preserve" font-family="Helvetica-Light,Helvetica" font-size="18.0" fill="#000000" transform="matrix(1.00, 0.00, -0.00, -1.00, 579.7, 82.6)">-</text><text xml:space="preserve" font-family="Helvetica-Light,Helvetica" font-size="18.0" fill="#000000" transform="matrix(1.00, 0.00, -0.00, -1.00, 585.7, 82.6)">n</text><text xml:space="preserve" font-family="Helvetica-Light,Helvetica" font-size="18.0" fill="#000000" transform="matrix(1.00, 0.00, -0.00, -1.00, 595.7, 82.6)">g</text><text xml:space="preserve" font-family="Helvetica-Light,Helvetica" font-size="18.0" fill="#000000" transform="matrix(1.00, 0.00, -0.00, -1.00, 606.7, 82.6)">d</text><text xml:space="preserve" font-family="Helvetica-Light,Helvetica" font-size="18.0" fill="#000000" transform="matrix(1.00, 0.00, -0.00, -1.00, 617.7, 82.6)">o</text><text xml:space="preserve" font-family="Helvetica-Light,Helvetica" font-size="18.0" fill="#000000" transform="matrix(1.00, 0.00, -0.00, -1.00, 627.8, 82.6)">c</text><text xml:space="preserve" font-family="Helvetica-Light,Helvetica" font-size="18.0" fill="#000000" transform="matrix(1.00, 0.00, -0.00, -1.00, 637.8, 82.6)">s</text><g><clipPath id="clip0x6000004bf080"><path d="M 276.7 79.8 L 646.8 79.8 L 646.8 82.7 L 276.7 82.7 Z M 276.7 79.8 "></path></clipPath><g clip-path="url(#clip0x6000004bf080)"><path d="M 22.4 23.2 L 391.5 23.2 " fill="none" stroke="#000000" stroke-width="0.90" transform="matrix(1.00, 0.00, 0.00, -1.00, 255.3, 104.5)"></path></g></g><text xml:space="preserve" font-family="Helvetica-Light,Helvetica" font-size="18.0" fill="#000000" transform="matrix(1.00, 0.00, -0.00, -1.00, 699.2, 82.6)">h</text><text xml:space="preserve" font-family="Helvetica-Light,Helvetica" font-size="18.0" fill="#000000" transform="matrix(1.00, 0.00, -0.00, -1.00, 709.2, 82.6)">t</text><text xml:space="preserve" font-family="Helvetica-Light,Helvetica" font-size="18.0" fill="#000000" transform="matrix(1.00, 0.00, -0.00, -1.00, 714.2, 82.6)">t</text><text xml:space="preserve" font-family="Helvetica-Light,Helvetica" font-size="18.0" fill="#000000" transform="matrix(1.00, 0.00, -0.00, -1.00, 719.2, 82.6)">p</text><text xml:space="preserve" font-family="Helvetica-Light,Helvetica" font-size="18.0" fill="#000000" transform="matrix(1.00, 0.00, -0.00, -1.00, 730.2, 82.6)">:</text><text xml:space="preserve" font-family="Helvetica-Light,Helvetica" font-size="18.0" fill="#000000" transform="matrix(1.00, 0.00, -0.00, -1.00, 735.2, 82.6)">/</text><text xml:space="preserve" font-family="Helvetica-Light,Helvetica" font-size="18.0" fill="#000000" transform="matrix(1.00, 0.00, -0.00, -1.00, 740.2, 82.6)">/</text><text xml:space="preserve" font-family="Helvetica-Light,Helvetica" font-size="18.0" fill="#000000" transform="matrix(1.00, 0.00, -0.00, -1.00, 745.2, 82.6)">u</text><text xml:space="preserve" font-family="Helvetica-Light,Helvetica" font-size="18.0" fill="#000000" transform="matrix(1.00, 0.00, -0.00, -1.00, 755.2, 82.6)">s</text><text xml:space="preserve" font-family="Helvetica-Light,Helvetica" font-size="18.0" fill="#000000" transform="matrix(1.00, 0.00, -0.00, -1.00, 764.2, 82.6)">e</text><text xml:space="preserve" font-family="Helvetica-Light,Helvetica" font-size="18.0" fill="#000000" transform="matrix(1.00, 0.00, -0.00, -1.00, 774.2, 82.6)">j</text><text xml:space="preserve" font-family="Helvetica-Light,Helvetica" font-size="18.0" fill="#000000" transform="matrix(1.00, 0.00, -0.00, -1.00, 778.2, 82.6)">s</text><text xml:space="preserve" font-family="Helvetica-Light,Helvetica" font-size="18.0" fill="#000000" transform="matrix(1.00, 0.00, -0.00, -1.00, 787.2, 82.6)">d</text><text xml:space="preserve" font-family="Helvetica-Light,Helvetica" font-size="18.0" fill="#000000" transform="matrix(1.00, 0.00, -0.00, -1.00, 798.2, 82.6)">o</text><text xml:space="preserve" font-family="Helvetica-Light,Helvetica" font-size="18.0" fill="#000000" transform="matrix(1.00, 0.00, -0.00, -1.00, 808.2, 82.6)">c</text><text xml:space="preserve" font-family="Helvetica-Light,Helvetica" font-size="18.0" fill="#000000" transform="matrix(1.00, 0.00, -0.00, -1.00, 818.2, 82.6)">.</text><text xml:space="preserve" font-family="Helvetica-Light,Helvetica" font-size="18.0" fill="#000000" transform="matrix(1.00, 0.00, -0.00, -1.00, 823.2, 82.6)">o</text><text xml:space="preserve" font-family="Helvetica-Light,Helvetica" font-size="18.0" fill="#000000" transform="matrix(1.00, 0.00, -0.00, -1.00, 833.3, 82.6)">r</text><text xml:space="preserve" font-family="Helvetica-Light,Helvetica" font-size="18.0" fill="#000000" transform="matrix(1.00, 0.00, -0.00, -1.00, 839.2, 82.6)">g</text><text xml:space="preserve" font-family="Helvetica-Light,Helvetica" font-size="18.0" fill="#000000" transform="matrix(1.00, 0.00, -0.00, -1.00, 850.2, 82.6)">/</text><g><clipPath id="clip0x6000004bfaa0"><path d="M 698.2 79.8 L 855.2 79.8 L 855.2 82.7 L 698.2 82.7 Z M 698.2 79.8 "></path></clipPath><g clip-path="url(#clip0x6000004bfaa0)"><path d="M 128.9 23.2 L 285.0 23.2 " fill="none" stroke="#000000" stroke-width="0.90" transform="matrix(1.00, 0.00, 0.00, -1.00, 570.3, 104.5)"></path></g></g><text xml:space="preserve" font-family="Helvetica-Light,Helvetica" font-size="18.0" fill="#000000" transform="matrix(1.00, 0.00, -0.00, -1.00, 384.9, 42.3)">h</text><text xml:space="preserve" font-family="Helvetica-Light,Helvetica" font-size="18.0" fill="#000000" transform="matrix(1.00, 0.00, -0.00, -1.00, 394.9, 42.3)">t</text><text xml:space="preserve" font-family="Helvetica-Light,Helvetica" font-size="18.0" fill="#000000" transform="matrix(1.00, 0.00, -0.00, -1.00, 399.9, 42.3)">t</text><text xml:space="preserve" font-family="Helvetica-Light,Helvetica" font-size="18.0" fill="#000000" transform="matrix(1.00, 0.00, -0.00, -1.00, 404.9, 42.3)">p</text><text xml:space="preserve" font-family="Helvetica-Light,Helvetica" font-size="18.0" fill="#000000" transform="matrix(1.00, 0.00, -0.00, -1.00, 415.9, 42.3)">:</text><text xml:space="preserve" font-family="Helvetica-Light,Helvetica" font-size="18.0" fill="#000000" transform="matrix(1.00, 0.00, -0.00, -1.00, 420.9, 42.3)">/</text><text xml:space="preserve" font-family="Helvetica-Light,Helvetica" font-size="18.0" fill="#000000" transform="matrix(1.00, 0.00, -0.00, -1.00, 425.9, 42.3)">/</text><text xml:space="preserve" font-family="Helvetica-Light,Helvetica" font-size="18.0" fill="#000000" transform="matrix(1.00, 0.00, -0.00, -1.00, 430.9, 42.3)">a</text><text xml:space="preserve" font-family="Helvetica-Light,Helvetica" font-size="18.0" fill="#000000" transform="matrix(1.00, 0.00, -0.00, -1.00, 440.9, 42.3)">p</text><text xml:space="preserve" font-family="Helvetica-Light,Helvetica" font-size="18.0" fill="#000000" transform="matrix(1.00, 0.00, -0.00, -1.00, 451.9, 42.3)">i</text><text xml:space="preserve" font-family="Helvetica-Light,Helvetica" font-size="18.0" fill="#000000" transform="matrix(1.00, 0.00, -0.00, -1.00, 455.9, 42.3)">a</text><text xml:space="preserve" font-family="Helvetica-Light,Helvetica" font-size="18.0" fill="#000000" transform="matrix(1.00, 0.00, -0.00, -1.00, 465.9, 42.3)">r</text><text xml:space="preserve" font-family="Helvetica-Light,Helvetica" font-size="18.0" fill="#000000" transform="matrix(1.00, 0.00, -0.00, -1.00, 472.2, 42.3)">y</text><text xml:space="preserve" font-family="Helvetica-Light,Helvetica" font-size="18.0" fill="#000000" transform="matrix(1.00, 0.00, -0.00, -1.00, 479.6, 42.3)">.</text><text xml:space="preserve" font-family="Helvetica-Light,Helvetica" font-size="18.0" fill="#000000" transform="matrix(1.00, 0.00, -0.00, -1.00, 484.6, 42.3)">i</text><text xml:space="preserve" font-family="Helvetica-Light,Helvetica" font-size="18.0" fill="#000000" transform="matrix(1.00, 0.00, -0.00, -1.00, 488.6, 42.3)">o</text><text xml:space="preserve" font-family="Helvetica-Light,Helvetica" font-size="18.0" fill="#000000" transform="matrix(1.00, 0.00, -0.00, -1.00, 498.6, 42.3)">/</text><g><clipPath id="clip0x6000006a03c0"><path d="M 383.9 39.5 L 503.6 39.5 L 503.6 42.4 L 383.9 42.4 Z M 383.9 39.5 "></path></clipPath><g clip-path="url(#clip0x6000006a03c0)"><path d="M 147.6 23.2 L 266.3 23.2 " fill="none" stroke="#000000" stroke-width="0.90" transform="matrix(1.00, 0.00, 0.00, -1.00, 237.3, 64.1)"></path></g></g><text xml:space="preserve" font-family="Helvetica-Light,Helvetica" font-size="18.0" fill="#000000" transform="matrix(1.00, 0.00, -0.00, -1.00, 48.4, 82.6)">h</text><text xml:space="preserve" font-family="Helvetica-Light,Helvetica" font-size="18.0" fill="#000000" transform="matrix(1.00, 0.00, -0.00, -1.00, 58.4, 82.6)">t</text><text xml:space="preserve" font-family="Helvetica-Light,Helvetica" font-size="18.0" fill="#000000" transform="matrix(1.00, 0.00, -0.00, -1.00, 63.4, 82.6)">t</text><text xml:space="preserve" font-family="Helvetica-Light,Helvetica" font-size="18.0" fill="#000000" transform="matrix(1.00, 0.00, -0.00, -1.00, 68.4, 82.6)">p</text><text xml:space="preserve" font-family="Helvetica-Light,Helvetica" font-size="18.0" fill="#000000" transform="matrix(1.00, 0.00, -0.00, -1.00, 79.4, 82.6)">:</text><text xml:space="preserve" font-family="Helvetica-Light,Helvetica" font-size="18.0" fill="#000000" transform="matrix(1.00, 0.00, -0.00, -1.00, 84.4, 82.6)">/</text><text xml:space="preserve" font-family="Helvetica-Light,Helvetica" font-size="18.0" fill="#000000" transform="matrix(1.00, 0.00, -0.00, -1.00, 89.4, 82.6)">/</text><text xml:space="preserve" font-family="Helvetica-Light,Helvetica" font-size="18.0" fill="#000000" transform="matrix(1.00, 0.00, -0.00, -1.00, 94.4, 82.6)">a</text><text xml:space="preserve" font-family="Helvetica-Light,Helvetica" font-size="18.0" fill="#000000" transform="matrix(1.00, 0.00, -0.00, -1.00, 104.4, 82.6)">p</text><text xml:space="preserve" font-family="Helvetica-Light,Helvetica" font-size="18.0" fill="#000000" transform="matrix(1.00, 0.00, -0.00, -1.00, 115.4, 82.6)">i</text><text xml:space="preserve" font-family="Helvetica-Light,Helvetica" font-size="18.0" fill="#000000" transform="matrix(1.00, 0.00, -0.00, -1.00, 119.4, 82.6)">b</text><text xml:space="preserve" font-family="Helvetica-Light,Helvetica" font-size="18.0" fill="#000000" transform="matrix(1.00, 0.00, -0.00, -1.00, 130.4, 82.6)">l</text><text xml:space="preserve" font-family="Helvetica-Light,Helvetica" font-size="18.0" fill="#000000" transform="matrix(1.00, 0.00, -0.00, -1.00, 134.4, 82.6)">u</text><text xml:space="preserve" font-family="Helvetica-Light,Helvetica" font-size="18.0" fill="#000000" transform="matrix(1.00, 0.00, -0.00, -1.00, 144.4, 82.6)">e</text><text xml:space="preserve" font-family="Helvetica-Light,Helvetica" font-size="18.0" fill="#000000" transform="matrix(1.00, 0.00, -0.00, -1.00, 154.4, 82.6)">p</text><text xml:space="preserve" font-family="Helvetica-Light,Helvetica" font-size="18.0" fill="#000000" transform="matrix(1.00, 0.00, -0.00, -1.00, 165.4, 82.6)">r</text><text xml:space="preserve" font-family="Helvetica-Light,Helvetica" font-size="18.0" fill="#000000" transform="matrix(1.00, 0.00, -0.00, -1.00, 171.4, 82.6)">i</text><text xml:space="preserve" font-family="Helvetica-Light,Helvetica" font-size="18.0" fill="#000000" transform="matrix(1.00, 0.00, -0.00, -1.00, 175.4, 82.6)">n</text><text xml:space="preserve" font-family="Helvetica-Light,Helvetica" font-size="18.0" fill="#000000" transform="matrix(1.00, 0.00, -0.00, -1.00, 185.4, 82.6)">t</text><text xml:space="preserve" font-family="Helvetica-Light,Helvetica" font-size="18.0" fill="#000000" transform="matrix(1.00, 0.00, -0.00, -1.00, 190.4, 82.6)">.</text><text xml:space="preserve" font-family="Helvetica-Light,Helvetica" font-size="18.0" fill="#000000" transform="matrix(1.00, 0.00, -0.00, -1.00, 195.4, 82.6)">o</text><text xml:space="preserve" font-family="Helvetica-Light,Helvetica" font-size="18.0" fill="#000000" transform="matrix(1.00, 0.00, -0.00, -1.00, 205.4, 82.6)">r</text><text xml:space="preserve" font-family="Helvetica-Light,Helvetica" font-size="18.0" fill="#000000" transform="matrix(1.00, 0.00, -0.00, -1.00, 211.4, 82.6)">g</text><text xml:space="preserve" font-family="Helvetica-Light,Helvetica" font-size="18.0" fill="#000000" transform="matrix(1.00, 0.00, -0.00, -1.00, 222.4, 82.6)">/</text></g></svg>