<?xml version="1.0" encoding="UTF-8" standalone="no"?><svg xmlns="http://www.w3.org/2000/svg" xmlns:xlink="http://www.w3.org/1999/xlink" clip-rule="evenodd" stroke-miterlimit="10" viewBox="0 0 1024 768"><desc>SVG generated by Keynote</desc><defs></defs><g transform="matrix(1.00, 0.00, -0.00, -1.00, 0.0, 768.0)"><path d="M 0.0 768.0 L 1024.0 768.0 L 1024.0 0.0 L 0.0 0.0 Z M 0.0 768.0 " fill="#FEFFFF"></path><text xml:space="preserve" font-family="Helvetica-Light,Helvetica" font-size="67.2" fill="#000000" transform="matrix(1.00, 0.00, -0.00, -1.00, 19.2, 702.5)">D</text><text xml:space="preserve" font-family="Helvetica-Light,Helvetica" font-size="67.2" fill="#000000" transform="matrix(1.00, 0.00, -0.00, -1.00, 67.7, 702.5)">o</text><text xml:space="preserve" font-family="Helvetica-Light,Helvetica" font-size="67.2" fill="#000000" transform="matrix(1.00, 0.00, -0.00, -1.00, 105.0, 702.5)">c</text><text xml:space="preserve" font-family="Helvetica-Light,Helvetica" font-size="67.2" fill="#000000" transform="matrix(1.00, 0.00, -0.00, -1.00, 142.4, 702.5)">u</text><text xml:space="preserve" font-family="Helvetica-Light,Helvetica" font-size="67.2" fill="#000000" transform="matrix(1.00, 0.00, -0.00, -1.00, 179.8, 702.5)">m</text><text xml:space="preserve" font-family="Helvetica-Light,Helvetica" font-size="67.2" fill="#000000" transform="matrix(1.00, 0.00, -0.00, -1.00, 235.7, 702.5)">e</text><text xml:space="preserve" font-family="Helvetica-Light,Helvetica" font-size="67.2" fill="#000000" transform="matrix(1.00, 0.00, -0.00, -1.00, 273.1, 702.5)">n</text><text xml:space="preserve" font-family="Helvetica-Light,Helvetica" font-size="67.2" fill="#000000" transform="matrix(1.00, 0.00, -0.00, -1.00, 310.5, 702.5)">t</text><text xml:space="preserve" font-family="Helvetica-Light,Helvetica" font-size="67.2" fill="#000000" transform="matrix(1.00, 0.00, -0.00, -1.00, 329.2, 702.5)">a</text><text xml:space="preserve" font-family="Helvetica-Light,Helvetica" font-size="67.2" fill="#000000" transform="matrix(1.00, 0.00, -0.00, -1.00, 366.5, 702.5)">t</text><text xml:space="preserve" font-family="Helvetica-Light,Helvetica" font-size="67.2" fill="#000000" transform="matrix(1.00, 0.00, -0.00, -1.00, 385.2, 702.5)">i</text><text xml:space="preserve" font-family="Helvetica-Light,Helvetica" font-size="67.2" fill="#000000" transform="matrix(1.00, 0.00, -0.00, -1.00, 400.1, 702.5)">o</text><text xml:space="preserve" font-family="Helvetica-Light,Helvetica" font-size="67.2" fill="#000000" transform="matrix(1.00, 0.00, -0.00, -1.00, 437.5, 702.5)">n</text><image xlink:href="../../15AC83B8-22F4-439B-89E1-B5525EEDDE4D/assets/25C4B5A8A28EE8A5AEDD7615DFA6AF9A.png" width="879.00" height="798.00" transform="matrix(0.76, 0.00, -0.00, -0.76, 194.6, 667.0)"></image></g></svg>