<?xml version="1.0" encoding="UTF-8" standalone="no"?><svg xmlns="http://www.w3.org/2000/svg" xmlns:xlink="http://www.w3.org/1999/xlink" clip-rule="evenodd" stroke-miterlimit="10" viewBox="0 0 1024 768"><desc>SVG generated by Keynote</desc><defs></defs><g transform="matrix(1.00, 0.00, -0.00, -1.00, 0.0, 768.0)"><path d="M 0.0 768.0 L 1024.0 768.0 L 1024.0 0.0 L 0.0 0.0 Z M 0.0 768.0 " fill="#FEFFFF"></path><text xml:space="preserve" font-family="Helvetica-Light,Helvetica" font-size="67.2" fill="#000000" transform="matrix(1.00, 0.00, -0.00, -1.00, 9.2, 705.5)">D</text><text xml:space="preserve" font-family="Helvetica-Light,Helvetica" font-size="67.2" fill="#000000" transform="matrix(1.00, 0.00, -0.00, -1.00, 57.7, 705.5)">o</text><text xml:space="preserve" font-family="Helvetica-Light,Helvetica" font-size="67.2" fill="#000000" transform="matrix(1.00, 0.00, -0.00, -1.00, 95.0, 705.5)">c</text><text xml:space="preserve" font-family="Helvetica-Light,Helvetica" font-size="67.2" fill="#000000" transform="matrix(1.00, 0.00, -0.00, -1.00, 132.4, 705.5)">u</text><text xml:space="preserve" font-family="Helvetica-Light,Helvetica" font-size="67.2" fill="#000000" transform="matrix(1.00, 0.00, -0.00, -1.00, 169.8, 705.5)">m</text><text xml:space="preserve" font-family="Helvetica-Light,Helvetica" font-size="67.2" fill="#000000" transform="matrix(1.00, 0.00, -0.00, -1.00, 225.7, 705.5)">e</text><text xml:space="preserve" font-family="Helvetica-Light,Helvetica" font-size="67.2" fill="#000000" transform="matrix(1.00, 0.00, -0.00, -1.00, 263.1, 705.5)">n</text><text xml:space="preserve" font-family="Helvetica-Light,Helvetica" font-size="67.2" fill="#000000" transform="matrix(1.00, 0.00, -0.00, -1.00, 300.5, 705.5)">t</text><text xml:space="preserve" font-family="Helvetica-Light,Helvetica" font-size="67.2" fill="#000000" transform="matrix(1.00, 0.00, -0.00, -1.00, 319.2, 705.5)">a</text><text xml:space="preserve" font-family="Helvetica-Light,Helvetica" font-size="67.2" fill="#000000" transform="matrix(1.00, 0.00, -0.00, -1.00, 356.5, 705.5)">t</text><text xml:space="preserve" font-family="Helvetica-Light,Helvetica" font-size="67.2" fill="#000000" transform="matrix(1.00, 0.00, -0.00, -1.00, 375.2, 705.5)">i</text><text xml:space="preserve" font-family="Helvetica-Light,Helvetica" font-size="67.2" fill="#000000" transform="matrix(1.00, 0.00, -0.00, -1.00, 390.1, 705.5)">o</text><text xml:space="preserve" font-family="Helvetica-Light,Helvetica" font-size="67.2" fill="#000000" transform="matrix(1.00, 0.00, -0.00, -1.00, 427.5, 705.5)">n</text><image xlink:href="206CED39A053FBE44B45EFCF37A84A40.png" width="1324.00" height="92.00" transform="matrix(0.71, 0.00, -0.00, -0.71, 43.5, 416.6)"></image><text xml:space="preserve" font-family="Helvetica-Light,Helvetica" font-size="17.0" fill="#000000" transform="matrix(1.00, 0.00, -0.00, -1.00, 80.4, 21.9)">h</text><text xml:space="preserve" font-family="Helvetica-Light,Helvetica" font-size="17.0" fill="#000000" transform="matrix(1.00, 0.00, -0.00, -1.00, 89.8, 21.9)">t</text><text xml:space="preserve" font-family="Helvetica-Light,Helvetica" font-size="17.0" fill="#000000" transform="matrix(1.00, 0.00, -0.00, -1.00, 94.6, 21.9)">t</text><text xml:space="preserve" font-family="Helvetica-Light,Helvetica" font-size="17.0" fill="#000000" transform="matrix(1.00, 0.00, -0.00, -1.00, 99.3, 21.9)">p</text><text xml:space="preserve" font-family="Helvetica-Light,Helvetica" font-size="17.0" fill="#000000" transform="matrix(1.00, 0.00, -0.00, -1.00, 109.7, 21.9)">:</text><text xml:space="preserve" font-family="Helvetica-Light,Helvetica" font-size="17.0" fill="#000000" transform="matrix(1.00, 0.00, -0.00, -1.00, 114.4, 21.9)">/</text><text xml:space="preserve" font-family="Helvetica-Light,Helvetica" font-size="17.0" fill="#000000" transform="matrix(1.00, 0.00, -0.00, -1.00, 119.1, 21.9)">/</text><text xml:space="preserve" font-family="Helvetica-Light,Helvetica" font-size="17.0" fill="#000000" transform="matrix(1.00, 0.00, -0.00, -1.00, 123.8, 21.9)">s</text><text xml:space="preserve" font-family="Helvetica-Light,Helvetica" font-size="17.0" fill="#000000" transform="matrix(1.00, 0.00, -0.00, -1.00, 132.3, 21.9)">t</text><text xml:space="preserve" font-family="Helvetica-Light,Helvetica" font-size="17.0" fill="#000000" transform="matrix(1.00, 0.00, -0.00, -1.00, 137.1, 21.9)">a</text><text xml:space="preserve" font-family="Helvetica-Light,Helvetica" font-size="17.0" fill="#000000" transform="matrix(1.00, 0.00, -0.00, -1.00, 146.5, 21.9)">c</text><text xml:space="preserve" font-family="Helvetica-Light,Helvetica" font-size="17.0" fill="#000000" transform="matrix(1.00, 0.00, -0.00, -1.00, 156.0, 21.9)">k</text><text xml:space="preserve" font-family="Helvetica-Light,Helvetica" font-size="17.0" fill="#000000" transform="matrix(1.00, 0.00, -0.00, -1.00, 164.5, 21.9)">o</text><text xml:space="preserve" font-family="Helvetica-Light,Helvetica" font-size="17.0" fill="#000000" transform="matrix(1.00, 0.00, -0.00, -1.00, 173.9, 21.9)">v</text><text xml:space="preserve" font-family="Helvetica-Light,Helvetica" font-size="17.0" fill="#000000" transform="matrix(1.00, 0.00, -0.00, -1.00, 182.4, 21.9)">e</text><text xml:space="preserve" font-family="Helvetica-Light,Helvetica" font-size="17.0" fill="#000000" transform="matrix(1.00, 0.00, -0.00, -1.00, 191.9, 21.9)">r</text><text xml:space="preserve" font-family="Helvetica-Light,Helvetica" font-size="17.0" fill="#000000" transform="matrix(1.00, 0.00, -0.00, -1.00, 197.8, 21.9)">ﬂ</text><text xml:space="preserve" font-family="Helvetica-Light,Helvetica" font-size="17.0" fill="#000000" transform="matrix(1.00, 0.00, -0.00, -1.00, 206.3, 21.9)">o</text><text xml:space="preserve" font-family="Helvetica-Light,Helvetica" font-size="17.0" fill="#000000" transform="matrix(1.00, 0.00, -0.00, -1.00, 215.8, 21.9)">w</text><text xml:space="preserve" font-family="Helvetica-Light,Helvetica" font-size="17.0" fill="#000000" transform="matrix(1.00, 0.00, -0.00, -1.00, 227.1, 21.9)">.</text><text xml:space="preserve" font-family="Helvetica-Light,Helvetica" font-size="17.0" fill="#000000" transform="matrix(1.00, 0.00, -0.00, -1.00, 231.9, 21.9)">c</text><text xml:space="preserve" font-family="Helvetica-Light,Helvetica" font-size="17.0" fill="#000000" transform="matrix(1.00, 0.00, -0.00, -1.00, 241.3, 21.9)">o</text><text xml:space="preserve" font-family="Helvetica-Light,Helvetica" font-size="17.0" fill="#000000" transform="matrix(1.00, 0.00, -0.00, -1.00, 250.8, 21.9)">m</text><text xml:space="preserve" font-family="Helvetica-Light,Helvetica" font-size="17.0" fill="#000000" transform="matrix(1.00, 0.00, -0.00, -1.00, 264.9, 21.9)">/</text><text xml:space="preserve" font-family="Helvetica-Light,Helvetica" font-size="17.0" fill="#000000" transform="matrix(1.00, 0.00, -0.00, -1.00, 269.7, 21.9)">q</text><text xml:space="preserve" font-family="Helvetica-Light,Helvetica" font-size="17.0" fill="#000000" transform="matrix(1.00, 0.00, -0.00, -1.00, 280.0, 21.9)">u</text><text xml:space="preserve" font-family="Helvetica-Light,Helvetica" font-size="17.0" fill="#000000" transform="matrix(1.00, 0.00, -0.00, -1.00, 289.5, 21.9)">e</text><text xml:space="preserve" font-family="Helvetica-Light,Helvetica" font-size="17.0" fill="#000000" transform="matrix(1.00, 0.00, -0.00, -1.00, 298.9, 21.9)">s</text><text xml:space="preserve" font-family="Helvetica-Light,Helvetica" font-size="17.0" fill="#000000" transform="matrix(1.00, 0.00, -0.00, -1.00, 307.4, 21.9)">t</text><text xml:space="preserve" font-family="Helvetica-Light,Helvetica" font-size="17.0" fill="#000000" transform="matrix(1.00, 0.00, -0.00, -1.00, 312.2, 21.9)">i</text><text xml:space="preserve" font-family="Helvetica-Light,Helvetica" font-size="17.0" fill="#000000" transform="matrix(1.00, 0.00, -0.00, -1.00, 315.9, 21.9)">o</text><text xml:space="preserve" font-family="Helvetica-Light,Helvetica" font-size="17.0" fill="#000000" transform="matrix(1.00, 0.00, -0.00, -1.00, 325.4, 21.9)">n</text><text xml:space="preserve" font-family="Helvetica-Light,Helvetica" font-size="17.0" fill="#000000" transform="matrix(1.00, 0.00, -0.00, -1.00, 334.9, 21.9)">s</text><text xml:space="preserve" font-family="Helvetica-Light,Helvetica" font-size="17.0" fill="#000000" transform="matrix(1.00, 0.00, -0.00, -1.00, 343.4, 21.9)">/</text><text xml:space="preserve" font-family="Helvetica-Light,Helvetica" font-size="17.0" fill="#000000" transform="matrix(1.00, 0.00, -0.00, -1.00, 348.1, 21.9)">1</text><text xml:space="preserve" font-family="Helvetica-Light,Helvetica" font-size="17.0" fill="#000000" transform="matrix(1.00, 0.00, -0.00, -1.00, 357.5, 21.9)">8</text><text xml:space="preserve" font-family="Helvetica-Light,Helvetica" font-size="17.0" fill="#000000" transform="matrix(1.00, 0.00, -0.00, -1.00, 367.0, 21.9)">4</text><text xml:space="preserve" font-family="Helvetica-Light,Helvetica" font-size="17.0" fill="#000000" transform="matrix(1.00, 0.00, -0.00, -1.00, 376.4, 21.9)">6</text><text xml:space="preserve" font-family="Helvetica-Light,Helvetica" font-size="17.0" fill="#000000" transform="matrix(1.00, 0.00, -0.00, -1.00, 385.9, 21.9)">1</text><text xml:space="preserve" font-family="Helvetica-Light,Helvetica" font-size="17.0" fill="#000000" transform="matrix(1.00, 0.00, -0.00, -1.00, 395.3, 21.9)">8</text><text xml:space="preserve" font-family="Helvetica-Light,Helvetica" font-size="17.0" fill="#000000" transform="matrix(1.00, 0.00, -0.00, -1.00, 404.8, 21.9)">/</text><text xml:space="preserve" font-family="Helvetica-Light,Helvetica" font-size="17.0" fill="#000000" transform="matrix(1.00, 0.00, -0.00, -1.00, 409.5, 21.9)">w</text><text xml:space="preserve" font-family="Helvetica-Light,Helvetica" font-size="17.0" fill="#000000" transform="matrix(1.00, 0.00, -0.00, -1.00, 421.8, 21.9)">h</text><text xml:space="preserve" font-family="Helvetica-Light,Helvetica" font-size="17.0" fill="#000000" transform="matrix(1.00, 0.00, -0.00, -1.00, 431.2, 21.9)">a</text><text xml:space="preserve" font-family="Helvetica-Light,Helvetica" font-size="17.0" fill="#000000" transform="matrix(1.00, 0.00, -0.00, -1.00, 440.7, 21.9)">t</text><text xml:space="preserve" font-family="Helvetica-Light,Helvetica" font-size="17.0" fill="#000000" transform="matrix(1.00, 0.00, -0.00, -1.00, 445.4, 21.9)">-</text><text xml:space="preserve" font-family="Helvetica-Light,Helvetica" font-size="17.0" fill="#000000" transform="matrix(1.00, 0.00, -0.00, -1.00, 451.1, 21.9)">i</text><text xml:space="preserve" font-family="Helvetica-Light,Helvetica" font-size="17.0" fill="#000000" transform="matrix(1.00, 0.00, -0.00, -1.00, 454.9, 21.9)">s</text><text xml:space="preserve" font-family="Helvetica-Light,Helvetica" font-size="17.0" fill="#000000" transform="matrix(1.00, 0.00, -0.00, -1.00, 463.4, 21.9)">-</text><text xml:space="preserve" font-family="Helvetica-Light,Helvetica" font-size="17.0" fill="#000000" transform="matrix(1.00, 0.00, -0.00, -1.00, 469.0, 21.9)">t</text><text xml:space="preserve" font-family="Helvetica-Light,Helvetica" font-size="17.0" fill="#000000" transform="matrix(1.00, 0.00, -0.00, -1.00, 473.7, 21.9)">h</text><text xml:space="preserve" font-family="Helvetica-Light,Helvetica" font-size="17.0" fill="#000000" transform="matrix(1.00, 0.00, -0.00, -1.00, 483.2, 21.9)">e</text><text xml:space="preserve" font-family="Helvetica-Light,Helvetica" font-size="17.0" fill="#000000" transform="matrix(1.00, 0.00, -0.00, -1.00, 492.6, 21.9)">-</text><text xml:space="preserve" font-family="Helvetica-Light,Helvetica" font-size="17.0" fill="#000000" transform="matrix(1.00, 0.00, -0.00, -1.00, 498.3, 21.9)">b</text><text xml:space="preserve" font-family="Helvetica-Light,Helvetica" font-size="17.0" fill="#000000" transform="matrix(1.00, 0.00, -0.00, -1.00, 508.7, 21.9)">e</text><text xml:space="preserve" font-family="Helvetica-Light,Helvetica" font-size="17.0" fill="#000000" transform="matrix(1.00, 0.00, -0.00, -1.00, 518.1, 21.9)">s</text><text xml:space="preserve" font-family="Helvetica-Light,Helvetica" font-size="17.0" fill="#000000" transform="matrix(1.00, 0.00, -0.00, -1.00, 526.6, 21.9)">t</text><text xml:space="preserve" font-family="Helvetica-Light,Helvetica" font-size="17.0" fill="#000000" transform="matrix(1.00, 0.00, -0.00, -1.00, 531.4, 21.9)">-</text><text xml:space="preserve" font-family="Helvetica-Light,Helvetica" font-size="17.0" fill="#000000" transform="matrix(1.00, 0.00, -0.00, -1.00, 537.0, 21.9)">c</text><text xml:space="preserve" font-family="Helvetica-Light,Helvetica" font-size="17.0" fill="#000000" transform="matrix(1.00, 0.00, -0.00, -1.00, 546.5, 21.9)">o</text><text xml:space="preserve" font-family="Helvetica-Light,Helvetica" font-size="17.0" fill="#000000" transform="matrix(1.00, 0.00, -0.00, -1.00, 555.9, 21.9)">m</text><text xml:space="preserve" font-family="Helvetica-Light,Helvetica" font-size="17.0" fill="#000000" transform="matrix(1.00, 0.00, -0.00, -1.00, 570.1, 21.9)">m</text><text xml:space="preserve" font-family="Helvetica-Light,Helvetica" font-size="17.0" fill="#000000" transform="matrix(1.00, 0.00, -0.00, -1.00, 584.3, 21.9)">e</text><text xml:space="preserve" font-family="Helvetica-Light,Helvetica" font-size="17.0" fill="#000000" transform="matrix(1.00, 0.00, -0.00, -1.00, 593.7, 21.9)">n</text><text xml:space="preserve" font-family="Helvetica-Light,Helvetica" font-size="17.0" fill="#000000" transform="matrix(1.00, 0.00, -0.00, -1.00, 603.2, 21.9)">t</text><text xml:space="preserve" font-family="Helvetica-Light,Helvetica" font-size="17.0" fill="#000000" transform="matrix(1.00, 0.00, -0.00, -1.00, 607.9, 21.9)">-</text><text xml:space="preserve" font-family="Helvetica-Light,Helvetica" font-size="17.0" fill="#000000" transform="matrix(1.00, 0.00, -0.00, -1.00, 613.5, 21.9)">i</text><text xml:space="preserve" font-family="Helvetica-Light,Helvetica" font-size="17.0" fill="#000000" transform="matrix(1.00, 0.00, -0.00, -1.00, 617.3, 21.9)">n</text><text xml:space="preserve" font-family="Helvetica-Light,Helvetica" font-size="17.0" fill="#000000" transform="matrix(1.00, 0.00, -0.00, -1.00, 626.8, 21.9)">-</text><text xml:space="preserve" font-family="Helvetica-Light,Helvetica" font-size="17.0" fill="#000000" transform="matrix(1.00, 0.00, -0.00, -1.00, 632.4, 21.9)">s</text><text xml:space="preserve" font-family="Helvetica-Light,Helvetica" font-size="17.0" fill="#000000" transform="matrix(1.00, 0.00, -0.00, -1.00, 640.9, 21.9)">o</text><text xml:space="preserve" font-family="Helvetica-Light,Helvetica" font-size="17.0" fill="#000000" transform="matrix(1.00, 0.00, -0.00, -1.00, 650.4, 21.9)">u</text><text xml:space="preserve" font-family="Helvetica-Light,Helvetica" font-size="17.0" fill="#000000" transform="matrix(1.00, 0.00, -0.00, -1.00, 659.8, 21.9)">r</text><text xml:space="preserve" font-family="Helvetica-Light,Helvetica" font-size="17.0" fill="#000000" transform="matrix(1.00, 0.00, -0.00, -1.00, 665.2, 21.9)">c</text><text xml:space="preserve" font-family="Helvetica-Light,Helvetica" font-size="17.0" fill="#000000" transform="matrix(1.00, 0.00, -0.00, -1.00, 674.6, 21.9)">e</text><text xml:space="preserve" font-family="Helvetica-Light,Helvetica" font-size="17.0" fill="#000000" transform="matrix(1.00, 0.00, -0.00, -1.00, 684.1, 21.9)">-</text><text xml:space="preserve" font-family="Helvetica-Light,Helvetica" font-size="17.0" fill="#000000" transform="matrix(1.00, 0.00, -0.00, -1.00, 689.8, 21.9)">c</text><text xml:space="preserve" font-family="Helvetica-Light,Helvetica" font-size="17.0" fill="#000000" transform="matrix(1.00, 0.00, -0.00, -1.00, 699.2, 21.9)">o</text><text xml:space="preserve" font-family="Helvetica-Light,Helvetica" font-size="17.0" fill="#000000" transform="matrix(1.00, 0.00, -0.00, -1.00, 708.7, 21.9)">d</text><text xml:space="preserve" font-family="Helvetica-Light,Helvetica" font-size="17.0" fill="#000000" transform="matrix(1.00, 0.00, -0.00, -1.00, 719.1, 21.9)">e</text><text xml:space="preserve" font-family="Helvetica-Light,Helvetica" font-size="17.0" fill="#000000" transform="matrix(1.00, 0.00, -0.00, -1.00, 728.5, 21.9)">-</text><text xml:space="preserve" font-family="Helvetica-Light,Helvetica" font-size="17.0" fill="#000000" transform="matrix(1.00, 0.00, -0.00, -1.00, 734.2, 21.9)">y</text><text xml:space="preserve" font-family="Helvetica-Light,Helvetica" font-size="17.0" fill="#000000" transform="matrix(1.00, 0.00, -0.00, -1.00, 742.7, 21.9)">o</text><text xml:space="preserve" font-family="Helvetica-Light,Helvetica" font-size="17.0" fill="#000000" transform="matrix(1.00, 0.00, -0.00, -1.00, 752.1, 21.9)">u</text><text xml:space="preserve" font-family="Helvetica-Light,Helvetica" font-size="17.0" fill="#000000" transform="matrix(1.00, 0.00, -0.00, -1.00, 761.6, 21.9)">-</text><text xml:space="preserve" font-family="Helvetica-Light,Helvetica" font-size="17.0" fill="#000000" transform="matrix(1.00, 0.00, -0.00, -1.00, 767.2, 21.9)">h</text><text xml:space="preserve" font-family="Helvetica-Light,Helvetica" font-size="17.0" fill="#000000" transform="matrix(1.00, 0.00, -0.00, -1.00, 776.7, 21.9)">a</text><text xml:space="preserve" font-family="Helvetica-Light,Helvetica" font-size="17.0" fill="#000000" transform="matrix(1.00, 0.00, -0.00, -1.00, 786.1, 21.9)">v</text><text xml:space="preserve" font-family="Helvetica-Light,Helvetica" font-size="17.0" fill="#000000" transform="matrix(1.00, 0.00, -0.00, -1.00, 794.6, 21.9)">e</text><text xml:space="preserve" font-family="Helvetica-Light,Helvetica" font-size="17.0" fill="#000000" transform="matrix(1.00, 0.00, -0.00, -1.00, 804.1, 21.9)">-</text><text xml:space="preserve" font-family="Helvetica-Light,Helvetica" font-size="17.0" fill="#000000" transform="matrix(1.00, 0.00, -0.00, -1.00, 809.7, 21.9)">e</text><text xml:space="preserve" font-family="Helvetica-Light,Helvetica" font-size="17.0" fill="#000000" transform="matrix(1.00, 0.00, -0.00, -1.00, 819.2, 21.9)">v</text><text xml:space="preserve" font-family="Helvetica-Light,Helvetica" font-size="17.0" fill="#000000" transform="matrix(1.00, 0.00, -0.00, -1.00, 827.7, 21.9)">e</text><text xml:space="preserve" font-family="Helvetica-Light,Helvetica" font-size="17.0" fill="#000000" transform="matrix(1.00, 0.00, -0.00, -1.00, 837.2, 21.9)">r</text><text xml:space="preserve" font-family="Helvetica-Light,Helvetica" font-size="17.0" fill="#000000" transform="matrix(1.00, 0.00, -0.00, -1.00, 841.9, 21.9)">-</text><text xml:space="preserve" font-family="Helvetica-Light,Helvetica" font-size="17.0" fill="#000000" transform="matrix(1.00, 0.00, -0.00, -1.00, 847.5, 21.9)">e</text><text xml:space="preserve" font-family="Helvetica-Light,Helvetica" font-size="17.0" fill="#000000" transform="matrix(1.00, 0.00, -0.00, -1.00, 857.0, 21.9)">n</text><text xml:space="preserve" font-family="Helvetica-Light,Helvetica" font-size="17.0" fill="#000000" transform="matrix(1.00, 0.00, -0.00, -1.00, 866.4, 21.9)">c</text><text xml:space="preserve" font-family="Helvetica-Light,Helvetica" font-size="17.0" fill="#000000" transform="matrix(1.00, 0.00, -0.00, -1.00, 875.9, 21.9)">o</text><text xml:space="preserve" font-family="Helvetica-Light,Helvetica" font-size="17.0" fill="#000000" transform="matrix(1.00, 0.00, -0.00, -1.00, 885.3, 21.9)">u</text><text xml:space="preserve" font-family="Helvetica-Light,Helvetica" font-size="17.0" fill="#000000" transform="matrix(1.00, 0.00, -0.00, -1.00, 894.8, 21.9)">n</text><text xml:space="preserve" font-family="Helvetica-Light,Helvetica" font-size="17.0" fill="#000000" transform="matrix(1.00, 0.00, -0.00, -1.00, 904.2, 21.9)">t</text><text xml:space="preserve" font-family="Helvetica-Light,Helvetica" font-size="17.0" fill="#000000" transform="matrix(1.00, 0.00, -0.00, -1.00, 909.0, 21.9)">e</text><text xml:space="preserve" font-family="Helvetica-Light,Helvetica" font-size="17.0" fill="#000000" transform="matrix(1.00, 0.00, -0.00, -1.00, 918.4, 21.9)">r</text><text xml:space="preserve" font-family="Helvetica-Light,Helvetica" font-size="17.0" fill="#000000" transform="matrix(1.00, 0.00, -0.00, -1.00, 923.8, 21.9)">e</text><text xml:space="preserve" font-family="Helvetica-Light,Helvetica" font-size="17.0" fill="#000000" transform="matrix(1.00, 0.00, -0.00, -1.00, 933.2, 21.9)">d</text></g></svg>